<svg width="12" height="12" viewBox="0 0 12 12" fill="none" xmlns="http://www.w3.org/2000/svg">
<path d="M6.00002 0.666687C4.96175 0.667554 3.96601 1.07925 3.23028 1.81185C2.49456 2.54446 2.07863 3.53843 2.07335 4.57669C2.07335 6.13335 2.94668 7.43669 3.58668 8.38669L3.70335 8.56002C4.34011 9.4829 5.02321 10.3729 5.75002 11.2267L6.00335 11.5234L6.25668 11.2267C6.9834 10.3729 7.66649 9.48283 8.30335 8.56002L8.42002 8.38335C9.05668 7.43335 9.93002 6.13335 9.93002 4.57669C9.92473 3.53786 9.50834 2.54338 8.7719 1.81068C8.03545 1.07798 7.03886 0.666674 6.00002 0.666687ZM6.00002 6.33335C5.56753 6.33335 5.14476 6.20511 4.78517 5.96483C4.42557 5.72456 4.1453 5.38305 3.9798 4.98349C3.8143 4.58393 3.77099 4.14426 3.85537 3.72009C3.93974 3.29592 4.148 2.90629 4.45381 2.60048C4.75962 2.29467 5.14925 2.08641 5.57342 2.00204C5.99759 1.91766 6.43726 1.96097 6.83682 2.12647C7.23638 2.29197 7.57789 2.57225 7.81816 2.93184C8.05844 3.29144 8.18668 3.71421 8.18668 4.14669C8.18668 4.72663 7.9563 5.28281 7.54622 5.69289C7.13614 6.10297 6.57996 6.33335 6.00002 6.33335Z" fill="currentColor"/>
<path d="M5.99999 5.38999C6.68666 5.38999 7.24332 4.83333 7.24332 4.14665C7.24332 3.45998 6.68666 2.90332 5.99999 2.90332C5.31331 2.90332 4.75665 3.45998 4.75665 4.14665C4.75665 4.83333 5.31331 5.38999 5.99999 5.38999Z" fill="currentColor"/>
</svg>
