<svg width="17" height="18" viewBox="0 0 17 18" fill="none" xmlns="http://www.w3.org/2000/svg">
<path d="M4.00841 1.875C3.83123 1.875 3.66131 1.95402 3.53602 2.09467C3.41073 2.23532 3.34035 2.42609 3.34035 2.625V4.125C3.34035 4.32391 3.41073 4.51468 3.53602 4.65533C3.66131 4.79598 3.83123 4.875 4.00841 4.875C4.1856 4.875 4.35552 4.79598 4.48081 4.65533C4.6061 4.51468 4.67648 4.32391 4.67648 4.125V2.625C4.67648 2.42609 4.6061 2.23532 4.48081 2.09467C4.35552 1.95402 4.1856 1.875 4.00841 1.875Z" fill="currentColor"/>
<path fill-rule="evenodd" clip-rule="evenodd" d="M8.68488 16.125C9.63218 16.1249 10.5488 15.7482 11.2724 15.0618C11.996 14.3754 12.4797 13.4236 12.6378 12.375H12.6933C13.402 12.375 14.0817 12.0589 14.5829 11.4963C15.084 10.9337 15.3656 10.1706 15.3656 9.375C15.3656 8.57935 15.084 7.81629 14.5829 7.25368C14.0817 6.69107 13.402 6.375 12.6933 6.375V5.625H0.668076V11.625C0.668076 12.8185 1.09039 13.9631 1.84211 14.807C2.59383 15.6509 3.61338 16.125 4.67648 16.125H8.68488ZM2.00421 7.125V11.625C2.00421 12.4206 2.28575 13.1837 2.7869 13.7463C3.28805 14.3089 3.96775 14.625 4.67648 14.625H8.68488C9.39361 14.625 10.0733 14.3089 10.5745 13.7463C11.0756 13.1837 11.3572 12.4206 11.3572 11.625V7.125H2.00421ZM14.0294 9.375C14.0294 9.77282 13.8886 10.1544 13.6381 10.4357C13.3875 10.717 13.0477 10.875 12.6933 10.875V7.875C13.0477 7.875 13.3875 8.03304 13.6381 8.31434C13.8886 8.59564 14.0294 8.97718 14.0294 9.375Z" fill="currentColor"/>
<path d="M6.0126 2.625C6.0126 2.42609 6.08299 2.23532 6.20828 2.09467C6.33356 1.95402 6.50349 1.875 6.68067 1.875C6.85785 1.875 7.02778 1.95402 7.15307 2.09467C7.27835 2.23532 7.34874 2.42609 7.34874 2.625V4.125C7.34874 4.32391 7.27835 4.51468 7.15307 4.65533C7.02778 4.79598 6.85785 4.875 6.68067 4.875C6.50349 4.875 6.33356 4.79598 6.20828 4.65533C6.08299 4.51468 6.0126 4.32391 6.0126 4.125V2.625Z" fill="currentColor"/>
<path d="M9.35296 1.875C9.17578 1.875 9.00585 1.95402 8.88056 2.09467C8.75528 2.23532 8.68489 2.42609 8.68489 2.625V4.125C8.68489 4.32391 8.75528 4.51468 8.88056 4.65533C9.00585 4.79598 9.17578 4.875 9.35296 4.875C9.53014 4.875 9.70007 4.79598 9.82535 4.65533C9.95064 4.51468 10.021 4.32391 10.021 4.125V2.625C10.021 2.42609 9.95064 2.23532 9.82535 2.09467C9.70007 1.95402 9.53014 1.875 9.35296 1.875Z" fill="currentColor"/>
</svg>
