<svg width="26" height="26" viewBox="0 0 26 26" fill="none" xmlns="http://www.w3.org/2000/svg">
<path d="M16.25 18.4167H9.75001M16.25 18.4167H21.6667L20.1446 16.8946C19.9402 16.6901 19.7781 16.4474 19.6675 16.1803C19.5569 15.9132 19.5 15.6269 19.5 15.3378V11.9167C19.5002 10.5722 19.0836 9.2607 18.3075 8.1628C17.5315 7.06489 16.4342 6.23454 15.1667 5.78608V5.41667C15.1667 4.84203 14.9384 4.29093 14.5321 3.8846C14.1257 3.47827 13.5746 3.25 13 3.25C12.4254 3.25 11.8743 3.47827 11.4679 3.8846C11.0616 4.29093 10.8333 4.84203 10.8333 5.41667V5.78608C8.30918 6.67875 6.50001 9.087 6.50001 11.9167V15.3389C6.50001 15.9218 6.26818 16.4818 5.85543 16.8946L4.33334 18.4167H9.75001H16.25ZM16.25 18.4167V19.5C16.25 20.362 15.9076 21.1886 15.2981 21.7981C14.6886 22.4076 13.862 22.75 13 22.75C12.1381 22.75 11.3114 22.4076 10.7019 21.7981C10.0924 21.1886 9.75001 20.362 9.75001 19.5V18.4167H16.25Z" stroke="currentColor" stroke-width="2" stroke-linecap="round" stroke-linejoin="round"/>
</svg>
