<svg width="31" height="31" viewBox="0 0 31 31" fill="none" xmlns="http://www.w3.org/2000/svg">
<path fill-rule="evenodd" clip-rule="evenodd" d="M15.125 0C6.77188 0 0 6.77188 0 15.125C0 23.4781 6.77188 30.25 15.125 30.25C23.4781 30.25 30.25 23.4781 30.25 15.125C30.25 6.77188 23.4781 0 15.125 0ZM16.5 20.625C16.5 20.9897 16.3551 21.3394 16.0973 21.5973C15.8394 21.8551 15.4897 22 15.125 22C14.7603 22 14.4106 21.8551 14.1527 21.5973C13.8949 21.3394 13.75 20.9897 13.75 20.625V16.5H9.625C9.26033 16.5 8.91059 16.3551 8.65273 16.0973C8.39487 15.8394 8.25 15.4897 8.25 15.125C8.25 14.7603 8.39487 14.4106 8.65273 14.1527C8.91059 13.8949 9.26033 13.75 9.625 13.75H13.75V9.625C13.75 9.26033 13.8949 8.91059 14.1527 8.65273C14.4106 8.39487 14.7603 8.25 15.125 8.25C15.4897 8.25 15.8394 8.39487 16.0973 8.65273C16.3551 8.91059 16.5 9.26033 16.5 9.625V13.75H20.625C20.9897 13.75 21.3394 13.8949 21.5973 14.1527C21.8551 14.4106 22 14.7603 22 15.125C22 15.4897 21.8551 15.8394 21.5973 16.0973C21.3394 16.3551 20.9897 16.5 20.625 16.5H16.5V20.625Z" fill="currentColor"/>
</svg>
